<svg xmlns="http://www.w3.org/2000/svg" viewBox="0 0 720 200" width="720" height="200" role="img" aria-label="SIBYX">
  <defs>
    <linearGradient id="g" x1="0" y1="0" x2="1" y2="1">
      <stop offset="0" stop-color="#3B6BFF"/>
      <stop offset="1" stop-color="#00D6C2"/>
    </linearGradient>
  </defs>
  <!-- icon -->
  <g transform="translate(28,52) scale(0.1875)">
    <path d="M256 36 L438 112 V252 C438 372 356 454 256 486 C156 454 74 372 74 252 V112 Z" fill="url(#g)"/>
    <path d="M170 166 H342 a28 28 0 0 1 28 28 V262 a28 28 0 0 1 -28 28 H210 L182 326 V290 H170 a28 28 0 0 1 -28 -28 V194 a28 28 0 0 1 28 -28 Z" fill="#FFFFFF"/>
    <circle cx="198" cy="228" r="10" fill="#3B6BFF"/>
    <circle cx="236" cy="228" r="10" fill="#3B6BFF" opacity="0.6"/>
    <circle cx="274" cy="228" r="10" fill="#3B6BFF" opacity="0.35"/>
  </g>
  <!-- wordmark -->
  <text x="162" y="120" font-family="'Inter','Segoe UI',system-ui,-apple-system,sans-serif" font-size="80" font-weight="700" letter-spacing="2" fill="#0B1437">SIBYX</text>
  <text x="164" y="152" font-family="'Inter','Segoe UI',system-ui,-apple-system,sans-serif" font-size="22" font-weight="500" letter-spacing="3" fill="#00A896">SECURE COMMUNICATION</text>
</svg>
